<svg width="20" height="20" viewBox="0 0 20 20" fill="none" xmlns="http://www.w3.org/2000/svg">
<path fill-rule="evenodd" clip-rule="evenodd" d="M10 1.66667C5.39762 1.66667 1.66667 5.39762 1.66667 10C1.66667 12.5874 2.84494 14.8991 4.69731 16.4289L5 16.6788V18.3333H10C14.6023 18.3333 18.3333 14.6023 18.3333 10C18.3333 5.39762 14.6023 1.66667 10 1.66667ZM0 10C0 4.47716 4.47716 0 10 0C15.5229 0 20 4.47716 20 10C20 15.5229 15.5229 20 10 20H3.33333V17.4537C1.28871 15.6237 0 12.962 0 10Z" fill="#828282"/>
</svg>
