<svg width="35" height="36" viewBox="0 0 35 36" fill="none" xmlns="http://www.w3.org/2000/svg">
<path d="M13.1558 13.963C16.2257 13.963 18.7143 11.0611 18.7143 7.48148C18.7143 3.90186 16.2257 1 13.1558 1C10.086 1 7.59741 3.90186 7.59741 7.48148C7.59741 11.0611 10.086 13.963 13.1558 13.963Z" stroke="#222222" stroke-width="2" stroke-linecap="round"/>
<path d="M21.5333 8.77779C22.1231 7.58683 23.0943 6.71779 24.2336 6.36188C25.3726 6.00594 26.5863 6.19227 27.6078 6.87988C28.6292 7.56749 29.3744 8.70001 29.6797 10.0284C29.9848 11.3567 29.8251 12.7719 29.2355 13.963C28.6456 15.154 27.6745 16.023 26.5352 16.379C25.3962 16.7347 24.1824 16.5486 23.161 15.861C22.1396 15.1732 21.3943 14.0408 21.0891 12.7123C20.784 11.3841 20.9437 9.96875 21.5333 8.77779Z" stroke="#222222" stroke-width="2"/>
<path d="M23.161 33.4074H3.15073V36H23.161V33.4074ZM2.23552 32.3333C2.52416 30.2229 3.21825 27.2236 4.84925 24.7767C6.4398 22.3907 8.97304 20.4444 13.1559 20.4444V17.8519C8.26685 17.8519 5.09326 20.1862 3.09381 23.1856C1.13484 26.1246 0.355752 29.6155 0.0398998 31.925L2.23552 32.3333ZM13.1559 20.4444C17.3387 20.4444 19.872 22.3907 21.4626 24.7767C23.0936 27.2236 23.7875 30.2229 24.0764 32.3333L26.2719 31.925C25.956 29.6155 25.1769 26.1246 23.2179 23.1856C21.2184 20.1862 18.045 17.8519 13.1559 17.8519V20.4444ZM3.15073 33.4074C2.50206 33.4074 2.16566 32.844 2.23552 32.3333L0.0398998 31.925C-0.277042 34.2422 1.34353 36 3.15073 36V33.4074ZM23.161 36C24.9682 36 26.5888 34.2422 26.2719 31.925L24.0764 32.3333C24.1462 32.844 23.8098 33.4074 23.161 33.4074V36Z" fill="#222222"/>
<path d="M21.6055 22.9873L21.0096 21.8927L19.8644 22.7402L20.8022 23.8833L21.6055 22.9873ZM31.8212 33.4074H23.161V36H31.8212V33.4074ZM32.7472 32.2089C32.8669 32.766 32.516 33.4074 31.8212 33.4074V36C33.7571 36 35.4233 33.9978 34.9039 31.5791L32.7472 32.2089ZM25.3846 23.0371C27.6695 23.0371 29.2743 24.3403 30.4501 26.166C31.6493 28.0286 32.3535 30.3756 32.7472 32.2089L34.9039 31.5791C34.479 29.6002 33.684 26.8707 32.2281 24.6095C30.7484 22.3119 28.542 20.4445 25.3846 20.4445V23.0371ZM22.2011 24.0816C23.0678 23.4405 24.1086 23.0371 25.3846 23.0371V20.4445C23.6768 20.4445 22.2243 20.9938 21.0096 21.8927L22.2011 24.0816ZM20.8022 23.8833C22.9082 26.4505 23.7495 29.9453 24.0761 32.3333L26.2719 31.925C25.9173 29.3332 24.9748 25.219 22.4088 22.091L20.8022 23.8833ZM24.0761 32.3333C24.1461 32.844 23.8097 33.4074 23.161 33.4074V36C24.9681 36 26.5887 34.2422 26.2719 31.925L24.0761 32.3333Z" fill="#222222"/>
</svg>
