<svg width="37" height="37" viewBox="0 0 37 37" fill="none" xmlns="http://www.w3.org/2000/svg">
<path d="M1.00012 18.0289C1.00012 15.068 1.00012 13.5874 1.68627 12.2858C2.37242 10.9845 3.66105 10.021 6.23825 8.09396L8.73825 6.22467C13.3965 2.74156 15.7256 1 18.5001 1C21.2746 1 23.6036 2.74156 28.2619 6.22467L30.7619 8.09396C33.3391 10.021 34.6279 10.9845 35.3139 12.2858C36.0001 13.5874 36.0001 15.068 36.0001 18.0289V27.2766C36.0001 31.3888 36.0001 33.4449 34.5356 34.7225C33.0711 36 30.7141 36 26.0001 36H11.0001C6.28607 36 3.92905 36 2.4646 34.7225C1.00012 33.4449 1.00012 31.3888 1.00012 27.2766V18.0289Z" stroke="#323232" stroke-width="2"/>
<path d="M24.7501 36V25.0957C24.7501 23.8912 23.6309 22.9149 22.2501 22.9149H14.7501C13.3694 22.9149 12.2501 23.8912 12.2501 25.0957V36" stroke="#323232" stroke-width="2" stroke-linecap="round" stroke-linejoin="round"/>
</svg>
