<svg width="20" height="20" viewBox="0 0 20 20" fill="none" xmlns="http://www.w3.org/2000/svg">
<path fill-rule="evenodd" clip-rule="evenodd" d="M13.8164 3.57079C14.3961 1.81409 13.1016 0 11.2681 0C10.4007 0 9.58655 0.423116 9.08239 1.13606L4.67475 7.36842H1.04221L0 8.42105V18.9474L1.04221 20H16.2774L19.4785 13.5338C20.4291 11.6136 20.0564 9.2946 18.5536 7.77656C17.6274 6.84125 16.3715 6.31579 15.0618 6.31579H12.9104L13.8164 3.57079ZM6.2533 8.75846L10.7786 2.35972C10.8915 2.20004 11.0738 2.10526 11.2681 2.10526C11.6787 2.10526 11.9688 2.51159 11.8388 2.90504L10.0184 8.42105H15.0618C15.8187 8.42105 16.5445 8.72477 17.0796 9.26526C17.9483 10.1425 18.1635 11.4827 17.6142 12.5923L14.9892 17.8947H6.2533V8.75846ZM4.16888 17.8947H2.08442V9.47368H4.16888V17.8947Z" fill="#828282"/>
</svg>
