<svg width="20" height="20" viewBox="0 0 20 20" fill="none" xmlns="http://www.w3.org/2000/svg">
<path fill-rule="evenodd" clip-rule="evenodd" d="M13.3333 4.16667C13.3333 2.78596 14.4527 1.66667 15.8333 1.66667C17.214 1.66667 18.3333 2.78596 18.3333 4.16667C18.3333 5.54738 17.214 6.66667 15.8333 6.66667C14.4527 6.66667 13.3333 5.54738 13.3333 4.16667ZM15.8333 0C13.5321 0 11.6667 1.86548 11.6667 4.16667C11.6667 4.44704 11.6943 4.72094 11.7471 4.9858L7.52864 7.53818C6.77041 6.50446 5.54691 5.83333 4.16667 5.83333C1.86548 5.83333 0 7.69881 0 10C0 12.3012 1.86548 14.1667 4.16667 14.1667C5.66692 14.1667 6.98199 13.3738 7.71567 12.1841L11.7629 14.939C11.6999 15.2271 11.6667 15.5263 11.6667 15.8333C11.6667 18.1346 13.5321 20 15.8333 20C18.1346 20 20 18.1346 20 15.8333C20 13.5321 18.1346 11.6667 15.8333 11.6667C14.4431 11.6667 13.2119 12.3476 12.455 13.394L8.29567 10.5628C8.32044 10.3788 8.33333 10.1909 8.33333 10C8.33333 9.67789 8.29678 9.36433 8.22767 9.06322L12.4052 6.53566C13.1572 7.62186 14.4122 8.33333 15.8333 8.33333C18.1346 8.33333 20 6.46786 20 4.16667C20 1.86548 18.1346 0 15.8333 0ZM13.3333 15.8333C13.3333 14.4527 14.4527 13.3333 15.8333 13.3333C17.214 13.3333 18.3333 14.4527 18.3333 15.8333C18.3333 17.214 17.214 18.3333 15.8333 18.3333C14.4527 18.3333 13.3333 17.214 13.3333 15.8333ZM1.66667 10C1.66667 8.61933 2.78596 7.5 4.16667 7.5C5.54738 7.5 6.66667 8.61933 6.66667 10C6.66667 11.3807 5.54738 12.5 4.16667 12.5C2.78596 12.5 1.66667 11.3807 1.66667 10Z" fill="#828282"/>
</svg>
