<svg width="42" height="42" viewBox="0 0 42 42" fill="none" xmlns="http://www.w3.org/2000/svg">
<path opacity="0.1" fill-rule="evenodd" clip-rule="evenodd" d="M34.6787 35.5909L34.5267 35.2371C33.6658 32.9458 32.23 31.4418 29.9973 30.5336C27.804 29.6413 24.8633 29.3333 21.0002 29.3333C17.1667 29.3333 14.2425 29.6604 12.0543 30.5624C9.83051 31.4791 8.39018 32.9798 7.51787 35.2318L7.34782 35.6158C3.44169 31.9656 1 26.768 1 21C1 9.95431 9.95431 1 21 1C32.0458 1 41 9.95431 41 21C41 26.7549 38.5693 31.942 34.6787 35.5909ZM13.7778 16.5556C13.7778 12.5668 17.0113 9.33333 21 9.33333C24.9887 9.33333 28.2222 12.5668 28.2222 16.5556C28.2222 20.5442 24.9887 23.7778 21 23.7778C17.0113 23.7778 13.7778 20.5442 13.7778 16.5556Z" fill="#323232" stroke="#CCCCCC" stroke-width="0.144" stroke-linecap="round" stroke-linejoin="round"/>
<path d="M41 21C41 32.0458 32.0458 41 21 41C9.95431 41 1 32.0458 1 21C1 9.95431 9.95431 1 21 1C32.0458 1 41 9.95431 41 21Z" stroke="#323232" stroke-width="2" stroke-linecap="round" stroke-linejoin="round"/>
<path d="M27.6668 16.5556C27.6668 20.2376 24.6822 23.2222 21.0002 23.2222C17.3182 23.2222 14.3335 20.2376 14.3335 16.5556C14.3335 12.8737 17.3182 9.88889 21.0002 9.88889C24.6822 9.88889 27.6668 12.8737 27.6668 16.5556Z" stroke="#323232" stroke-width="2" stroke-linecap="round" stroke-linejoin="round"/>
<path d="M8.03125 35.4444C9.66832 31.2027 13.3638 29.8889 21.0002 29.8889C28.7024 29.8889 32.3956 31.1284 34.0111 35.4444" stroke="#323232" stroke-width="2" stroke-linecap="round" stroke-linejoin="round"/>
<path opacity="0.1" fill-rule="evenodd" clip-rule="evenodd" d="M34.6787 35.5909L34.5267 35.2371C33.6658 32.9458 32.23 31.4418 29.9973 30.5336C27.804 29.6413 24.8633 29.3333 21.0002 29.3333C17.1667 29.3333 14.2425 29.6604 12.0543 30.5624C9.83051 31.4791 8.39018 32.9798 7.51787 35.2318L7.34782 35.6158C3.44169 31.9656 1 26.768 1 21C1 9.95431 9.95431 1 21 1C32.0458 1 41 9.95431 41 21C41 26.7549 38.5693 31.942 34.6787 35.5909ZM13.7778 16.5556C13.7778 12.5668 17.0113 9.33333 21 9.33333C24.9887 9.33333 28.2222 12.5668 28.2222 16.5556C28.2222 20.5442 24.9887 23.7778 21 23.7778C17.0113 23.7778 13.7778 20.5442 13.7778 16.5556Z" fill="#323232"/>
<path d="M41 21C41 32.0458 32.0458 41 21 41C9.95431 41 1 32.0458 1 21C1 9.95431 9.95431 1 21 1C32.0458 1 41 9.95431 41 21Z" stroke="#323232" stroke-width="0.00024"/>
<path d="M27.6668 16.5556C27.6668 20.2376 24.6822 23.2222 21.0002 23.2222C17.3182 23.2222 14.3335 20.2376 14.3335 16.5556C14.3335 12.8737 17.3182 9.88889 21.0002 9.88889C24.6822 9.88889 27.6668 12.8737 27.6668 16.5556Z" stroke="#323232" stroke-width="0.00024"/>
<path d="M8.03125 35.4444C9.66832 31.2027 13.3638 29.8889 21.0002 29.8889C28.7024 29.8889 32.3956 31.1284 34.0111 35.4444" stroke="#323232" stroke-width="0.00024" stroke-linecap="round"/>
</svg>
